M48
;Layer_Color=9474304
;FILE_FORMAT=2:5
INCH,LZ
;TYPE=PLATED
T1F00S00C0.00800
T2F00S00C0.00800
T3F00S00C0.01000
T4F00S00C0.01000
T5F00S00C0.02200
T10F00S00C0.03800
T11F00S00C0.04094
T12F00S00C0.04100
T13F00S00C0.04300
T14F00S00C0.05000
T15F00S00C0.06102
T16F00S00C0.06200
T17F00S00C0.07800
T18F00S00C0.12000
;TYPE=NON_PLATED
T19F00S00C0.02559
T20F00S00C0.04000
T21F00S00C0.04100
T22F00S00C0.13000
%
T01
X0255Y-00112
X02596
X02642
X02688
X02734
X0278
X02826
X02872
X02918
X02964
X0301
X03056
X03102
X03737
X03783
X03829
X03875
X03921
X02504
X02458
X02412
X02366
X0232
X02274
X02228
X02182
X02136
X0209
X02044
X01998
X01952
X01906
X0186
X01814
X01768
X01722
X01676
X0163
X01584
X01538
X01492
X01446
X014
X01354
X01308
X01262
X01216
X0117
X01124
X01078
X01032
X00986
X0094
X00894
X00848
X00802
X00756
X0071
X00664
X00618
X00572
X00526
X0048
X00434
X00388
X00342
X00296
X0025
X00204
X00158
X00112
X00066
X-00112Y00094
Y0014
Y00186
Y00232
Y00278
Y00324
Y0037
Y00416
Y00462
Y00508
Y00554
Y006
Y00646
Y00692
Y00738
Y00784
Y0083
Y00876
Y00922
Y00968
Y01014
Y0106
Y01106
Y01152
Y01198
Y01244
Y0129
Y01336
Y01382
Y01428
Y01474
X0023385Y0135385
X00255Y01261
X0031015Y0120585
X00369Y01193
X00457Y01178
X0051386Y0121954
Y0124354
X00514Y01283
Y01307
X0064Y013345
Y013585
X0066896Y013855
Y014095
X00665Y0148
X00735
X0081
X00875Y01475
X0091359Y0140907
Y0138507
X0087Y013585
Y013345
X0087867Y0124356
Y0121956
X00905Y01193
X00973Y01192
X00964Y01076
X0094Y0098818
Y0096418
X0094322Y0090284
Y0087884
X0094Y00815
Y0074429
X0086929
Y0067358
X00879Y00633
X0079Y00615
X00826Y00579
X0078Y00533
X00717Y00519
X0068909Y0049239
Y0046839
X00664Y00522
X00628Y00521
X00598Y00499
X00534Y00509
X00473Y0051
X00426Y00515
X00446Y00482
Y00458
X00409Y0047
X00419Y00431
Y00363
X00533
X00568
X00569Y00419
X00534Y00431
X00565Y00565
X00563Y00601
X00615Y00615
X00585Y00653
X0064Y00665
X0069Y00715
X00675Y0076
X00709
X00625
X006Y00788
X00558Y00798
X00511Y00812
X0051386Y0084954
Y0087354
X00514Y00913
Y00937
X0048962Y0096437
Y0098837
X0045958Y0101528
Y0103928
X0047Y01076
X00509Y01069
X00611Y01094
X00609Y0113
X00601Y01156
X00675Y01129
X00709
X0087867Y0087356
Y0084956
X0082358Y0077358
X0079Y00715
X00715Y00615
X00665Y00565
X005Y00576
X0043
X00427Y00704
Y00782
X0051185Y0076115
X00567Y00706
X00211Y00654
X00233Y00614
X00213Y00585
X00211Y00777
X00235Y00815
X0021Y00861
X00949Y00671
X0089Y0039
X00822Y00398
X00779Y00374
X00746Y00367
X00715Y00374
X00683Y00362
X0089Y0029
X0094Y0024
Y0014
X00974Y00161
X0089Y0019
Y0009
X00943Y00069
X0094Y-0006
X0089Y-0001
X0094Y0034
X0099Y00315
X0109
Y00215
X01014Y00205
X0119Y00215
X0124Y00265
X0119Y00315
X0129
X0139
X01423Y00264
X01364Y00206
X0129Y00215
X01323Y00159
X01289Y0007
X01265Y-0006
X01165
X01065
X01115Y-0001
X01215
X01415Y-0006
X01515
Y0004
X01615
X01565Y0009
Y-0001
X01465
X01615Y-0006
X0180585Y0002517
X01848Y00013
X01936Y00006
X019525Y000895
X0196Y00202
X01894Y0017
X01763Y00108
X0214Y0014
Y0004
Y-0006
X0229
X02285Y00025
X02299Y00078
X02285Y00165
Y00265
Y00345
X02235Y00375
X02185Y00435
X02177Y00529
X02115Y0053
X02093Y00513
X020826Y00672
X02045Y00705
X020032Y00672
X019238
X0194391Y0071169
X018444Y00672
X01765
X0177328Y0070964
X01702Y00672
X01717Y0053
X01777
X01858Y00536
X01916
X01653Y00529
X01643Y00464
X01565Y0044
X01567Y00382
X0158757Y0035127
X01555Y00529
X01481
X01515Y0049
X00993Y00526
X0114Y00265
X0109Y01112
X0106Y01196
X0106115Y0125315
X01005Y01363
X0098803Y0137997
X01003Y01071
X009769Y0103924
Y0101524
X01232Y01182
X01299Y01179
X0132422Y012897
X0136359
X0138312Y0130997
X0134396
X0144922Y0131198
X01437Y01288
X01561Y0131
X017Y0132
X0171814Y0128377
X0175701Y0116901
X0177694Y0114903
X0174996Y0113057
X01915Y01099
X01945Y01118
X01991Y01094
X02052Y01077
X02072Y01109
X0217554Y0111043
X0218981Y010849
X02167Y00986
X0222625Y0098846
X02195Y0093
X0227781Y0093279
X02316Y01058
X02328Y01121
X02281Y01117
X0240595Y011194
X02437Y01079
X02396Y01031
X02437Y00988
X02521Y00991
Y01069
X02536Y01113
X02505Y01141
X02537Y01245
Y01323
X02493Y01478
X02358Y01473
X02299
X0211201Y0147
X01718Y01461
X0162Y01464
X0156037Y01463
X01521
X01502Y01478
X0148163Y01463
X0144226
X0140289
X0163895Y0103544
X01965Y00945
X02035
X0213714Y00705
X02162Y00672
X02215Y00705
X02269Y00672
X02351Y00754
X02379Y00782
Y00837
X0252466Y0079185
X0252621Y0071708
X0252714Y0063766
X0244431Y006234
X0244488Y0045427
X0244355Y0037531
X02385Y00415
X02285Y00445
X02306Y00529
X0252903Y0052299
X0252931Y0043041
X0252732Y0031703
X0249767Y0021429
X02494Y00182
X02365Y00225
X0214Y0024
Y0034
X0234Y-0001
X0239Y-0006
X0244Y-0001
X02525Y-00005
X0249Y-0006
X0252101Y0090948
X02575Y00915
Y0097
X0258Y0103
X0254Y0104
X0264
X02603Y01103
X02678
X02748Y01104
X02747Y01074
Y01011
Y00936
Y00881
X02824
X02825Y00936
Y01011
Y01074
X02827Y01126
X02802Y0117395
X02744Y0118462
Y0124223
Y0129985
X02706Y01338
X02671Y01373
X0261685Y0134585
X0256515Y0135615
X0257829Y0144207
X02566Y01199
X02611Y01182
X02827Y012419
X02828Y0129984
X02813Y0135
X030889Y0139514
X030889Y0123813
Y0108013
X030889Y0092213
X0329Y00965
Y00865
X0334Y00815
X0344
X03463Y00749
X03506Y0075
X03557Y00749
X03585Y00709
X03622Y00754
X03709Y00755
X03738Y00722
Y00655
X03728Y00577
X03672
X03623Y00578
Y00531
X0361715Y0048115
X0364615Y0045315
X03692Y00435
X0370485Y0040115
X03745Y00395
X0372Y003655
Y003405
X03746Y00312
X03732Y00277
X0368915Y0027185
X03691Y00315
X0367Y00314
X0364215Y0034315
X0361115Y0037415
X03591Y00398
X03562Y00426
X0352715Y0043085
X03523Y00397
X03502Y00449
X03499Y00481
X03504Y00516
X0354Y00531
X03535Y00493
Y00468
X0354Y00578
X0348777Y0057623
X03435Y00578
X03375Y00571
X0327115Y0055015
X0330915Y0051115
X0335215Y0046815
X0339415Y0042615
X03424Y00396
Y00318
X03453Y00303
X0349485Y0030115
X03523Y00319
X03556
Y00282
X0358Y00296
X0360259Y0026826
X03604Y00224
X036386Y0024415
X036626
X03693Y0022
X0369115Y0017615
X0366Y00138
Y00085
X03674Y00064
Y00022
Y-00024
X03496Y-00011
Y00067
X0350917Y0010301
X0343316Y0010278
X0337123Y0010209
X0332Y00074
X03296
X0325713Y0009555
X0324382Y0002586
X0317754Y000257
X0312844Y000454
X030871Y0004863
X0310538Y-0005363
X0300177Y-0005306
X02942Y-00053
X02878
X0282319Y-0005306
Y0002494
X02878Y00025
X02865Y00075
X0276042Y0006185
X02725Y001
X02731Y00181
X02715Y00225
X0277Y00215
Y00285
Y0037
Y00445
Y0055
X02775Y00604
X0272Y00615
X02747Y00664
Y00739
Y00804
X02825
Y00739
X02826Y00681
X02841Y00656
X02907
Y00578
X02841
X02835Y00495
Y00405
Y00305
X02925Y00266
X03015Y0029
Y0039
X03065Y0034
Y0024
X03115Y0029
Y0039
X03065Y0044
X03015Y0049
X03065Y0054
X03061Y00578
X03108
Y00656
X03061
X02999
Y00578
X03115Y0049
X03216Y00495
X03254Y00456
X03297Y00413
X03339Y00371
X03375Y00333
X03315Y0029
X03215
X03181Y00232
X03215Y00183
X03111
X03015Y0019
X02855Y00195
X02942Y00025
X0270527Y0000669
X0273676Y-0002845
X02542Y-00038
X0260857Y001034
X0261339Y0059109
X02665Y0067
X0259194Y0083689
X0318815Y0063315
X0323015Y0059115
X03215Y0039
X03265Y0034
Y0024
X03323Y00184
X0337084Y0018451
X034154Y0019565
X0345961Y0021131
X0349681Y0019437
X0350585Y0023485
X03515Y00272
X035435Y00245
X035675
X03785Y00243
X03846Y00252
X03895Y00215
X03909Y00281
X03926Y00138
X04092Y00144
Y00098
Y00052
X04093Y00534
Y00581
Y00628
Y00675
Y00722
Y00769
Y00816
Y00863
Y0091
Y00957
X04061Y00961
X04034Y01003
X04093Y01004
Y01051
Y01098
Y01145
Y01192
Y01239
Y01286
Y01333
Y0138
Y01427
Y01474
X04034Y01317
X04036Y01159
X03974Y00848
X04039Y00583
X04003Y00531
X03889Y00495
X03857Y00491
X03881Y00573
X03786Y0055
X03717Y00512
X0367Y00499
X03746Y00452
X0343Y0066
X03427Y00728
X0339Y00865
Y00965
X0344Y01015
Y01115
X0339Y01065
Y01165
X0334Y01115
Y01015
Y00915
X0329Y01065
Y01165
X0334Y01215
X0344
Y01315
X0339Y01365
Y01265
X0334Y01315
X0329Y01365
Y01265
X0349Y00865
X0354Y00815
X0359Y00865
X0332472Y-0003053
X0334714Y0159911
X03405Y01695
Y0172
X0337215Y0175884
Y0178284
X03407Y01804
X03387Y01838
Y01863
X03385Y01909
X03411Y01897
X0341Y01935
X0336Y0194
X03385Y0201
X0336899Y02114
X03319Y0212289
X0331137Y02079
X03252Y02059
X03217Y0206633
X0324137Y02096
X0327Y0212707
Y0202
X03206
X03209Y0198
X03208Y0194
X0319Y019
X0327Y0191
X03261Y01792
X03309Y01791
X03265Y01746
X0322Y01716
X03134
X03063
X02974Y01717
X02828Y01716
X0282Y01766
X02824Y0181267
X02782Y01734
X02709Y01824
X0267502Y0186298
X0271094Y01902
X02717Y0193977
X02667Y02009
X02666Y02096
X02726Y02055
X02786Y02076
X02852Y02124
X02822Y02205
X02803Y02253
Y0234623
X0286498
X0292498Y02327
X02999Y02298
X02995Y0226
X03027Y02237
X03103Y02222
X03126Y02245
X03171Y0226
X03217Y02234
X03261Y0224277
X03319Y02236
X0336Y0220133
X03405Y02222
X03386Y0231
X03416Y0235
X03502Y0236833
Y0224732
X0349Y0219
X0354861Y0220507
X03558Y02148
X03525Y02113
X03579Y02058
X036Y01965
X03679Y01952
X03725Y01991
X03754Y01817
X03739Y01782
X03743Y01678
X03696Y01702
X03665Y01673
X03621Y01666
X0359362Y0169752
Y0172152
X0357958Y01756
Y01781
X03545Y01803
X0348067Y0182292
X03455Y0183
X03465Y01955
X03502Y01739
X03552Y01652
X03837Y01664
X0381913Y0159911
X03943Y01647
X039755Y0161938
X04093Y01615
Y01662
Y01709
Y01756
Y01568
Y01521
X04034Y01508
X03893Y01701
X0387Y01744
X0384Y02215
X0374
X03686Y02227
X0394Y02215
X0404
X04093Y02236
Y02282
Y02328
Y02374
Y0242
Y02466
Y02512
Y02558
Y02604
Y0265
X04065Y0264
X04093Y02696
Y02742
X04065Y0274
X04093Y02788
Y02834
X04065Y0284
X04093Y0288
Y02926
X04065Y0294
X04093Y02972
Y03018
X0394745Y0301323
X0383638
X0369623
X03694Y02878
Y02778
X03655Y02622
X0374Y02625
X03725Y02538
X03583Y02559
X0349723Y0257903
X03496Y02632
X03471Y02695
X03437Y02727
X03366Y02747
X03365Y02669
X03361Y02621
X03416Y0261372
X03393Y02581
X0334955Y02466
X0334682Y02398
X03261Y0236833
X03119Y02367
X03097Y0247
X03143Y02469
Y02547
X03097Y02548
X03041Y02568
X02983Y02547
X02906
X02833
X0281574Y02604
X0277537Y02669
X02736Y02632
X02703Y02705
X0267502Y02787
X0269104Y0283241
X02707Y02871
X0263499Y02878
X0254163
X0257355Y02828
X0260413Y02788
X02589Y02709
Y02631
X02633Y02638
X02661Y02558
X0268728Y02468
X02644Y02441
X0257501Y02466
X02558Y02353
X02574Y02289
X02631Y02299
X02675Y02343
X02758Y02315
X02768Y02425
X0282Y0243163
X02833Y02469
X02906
X02886Y0243163
X02947Y02428
X02983Y02469
X0304
X02999Y02398
X0294933Y0220866
X02949Y02159
X0298Y02114
X02939Y02072
X02897Y0203
X02886Y01999
X02806Y01976
X02988Y01941
X02947Y019
X03077Y01863
X03048Y01812
X03032Y01985
X0304Y0203347
X03084Y02038
X03119
X03163Y02055
X03165Y01975
X03164Y02179
X03119Y02155
X02721Y02182
X02672Y02229
X02614Y02168
X02577Y02134
X02563Y02061
X0254Y02215
X02577Y01831
X02559Y01668
X02548Y01533
X03153Y01557
X0319231Y0155507
X03181Y0158
X03161Y02639
X0309Y02631
X03099Y02709
X03145
Y02787
X03091
X03041
X02992
X0297566Y02842
X03056
X03058Y02952
X0298202Y0296037
X0290108Y02871
X0279937
X0278999Y02828
X02819Y02787
X02758Y0278802
X02819Y02709
X02919
X02992
X03041Y02685
X02962Y02629
X02919Y02787
X03205Y02951
X033Y02949
X0332196Y0303762
X0343073Y03041
X03373Y0291
X03375Y02819
X03494Y0291
X0356Y02713
X03506Y02515
X03245Y02647
X03857Y02623
X03969Y02628
Y02728
X04025Y02695
X04023Y02806
X03969Y02828
X04022Y02915
X04026Y02556
Y02478
X0404Y02415
X04043Y02367
X0404Y02315
X04093Y0219
Y02144
X02703Y0302758
X0248263Y0282437
X0252Y0278437
X02532Y02694
X02507Y02631
X02461Y02623
X024Y02672
X02359Y02665
X0237433Y0271667
X0245225Y02727
X02388Y02549
X02374Y0246
X02306Y02471
X02202Y02473
X02175Y02527
X0223015Y0258215
X02272Y02544
X0233Y02604
X02315Y0262
X02175Y02736
X02091Y02737
Y02659
X0211985Y0279115
X02202Y0279926
X0224763Y0283241
X0230432Y0289072
X0230337Y02981
X022129Y02924
X02138Y02878
X02062Y0296426
X02003Y03018
X01853Y02981
X01751Y03018
X01707Y02981
X01661Y02903
X01558Y02878
X01494Y02856
X01465Y02755
X01458Y02715
X01428Y02734
X0139479Y0275276
X0138566Y027825
X01365Y02809
X01342Y02837
X0128Y02848
Y02896
Y02942
Y02986
Y03031
X01197
Y02986
Y02942
Y02896
Y02859
X01119Y02835
X0108416Y0280986
X0101698Y0283903
X0098154Y0287502
X0098025Y0293039
X0098198Y0298057
X0098094Y0303062
X01138Y03036
X01143Y0296
X01045Y02924
X0100353Y0273459
X0102284Y02595
X0102398Y0253708
X00982Y02512
X0108902Y0255586
X0106Y02364
X01065Y0229
X01165
X01265
X01215Y0224
X01265Y0219
X01215Y0214
X01165Y0219
X01065
X01015Y0214
X01115
Y0224
X01015
X01115Y0234
X01215
X01315
Y0224
X01415
X01365Y0219
X01315Y0214
X01413Y02127
X01502Y02213
X01572Y02234
X01604Y0217
X01585Y02122
X01592Y02022
X01625Y0198
X01665Y0194
X0167Y02029
X01717Y01983
X01765Y0194
X01766Y02025
X0182Y01985
X01855Y02037
X01933Y02041
X01963Y02028
X02025Y01983
X02031Y01878
X02106Y01887
X02095Y01819
X02184Y01814
X02226
Y01772
X02184
X02205Y01793
X02195Y01683
X02108Y017
X02083Y01676
X02081Y01634
X02106Y0162778
X02061Y01532
X0219Y01526
X02195Y01555
X02311Y01621
X02352Y01641
X02328Y01695
X02303Y01685
X02412Y01728
X02452Y01704
Y01756
Y01815
X0239125Y01863
X02357Y01887
X02325Y01897
X02243Y01896
X02235Y01993
X02224Y02049
X0231Y02026
X02374Y02034
X0234633Y01989
X02375Y0214
X02352Y02179
X0231Y02206
X02362Y02257
X02414Y02252
X02455Y02212
X02452Y02138
X02489Y02047
X02535Y0199
X02501Y01733
X02512Y01621
X02436Y01654
X02375Y01767
X02356Y01792
X0234633Y015
X02382Y01499
X01909Y01522
X01879Y01556
X0187Y01489
X01802Y01549
X0181486Y01632
X01855Y01673
X0179Y0169
X01765Y01677
X01725Y01736
X0169098Y0171202
X01641Y01738
X01615Y0179
X0169858Y0179342
X01665Y0184
X01615Y0189
X01515
X01565Y0194
Y0184
X01515Y0179
X01415
X01465Y0184
Y0174
X01415Y0169
X01406Y01632
X01315Y01634
X01291Y0173
X01269Y01762
X01288Y01812
X0134483Y0175417
X01208Y01754
X01128Y01753
X01171Y01708
X0117Y01633
X01109Y01632
X01025Y0164
X00992Y01536
X0111749Y0150588
X0115185Y0149015
X01186Y01532
X0132411Y0149992
X01407Y01513
X01462Y01495
X01483Y01522
X0158
X0158037Y01487
X01614Y01492
X0162365Y0152239
X0171469Y0153063
X0170583Y0148169
X01604Y0163
X01569Y01665
X0150329Y0165705
X01515Y0169
X01565Y0174
X0184
X01935Y0173
X01933Y0163
Y01833
X01856Y01863
X0183258Y0190542
X0178258Y0186042
X01784Y01801
X01715Y0189
X01695Y0212
X01795
X01856Y02124
X01903Y02179
X01977Y0214
X02041Y02107
X02092Y02042
X02138Y01989
X02175Y0198
X02172Y02124
X02179Y02227
X02129Y02293
X02177Y02341
X02248Y02345
X02246Y02284
X02244Y02408
X02127Y02398
X02125Y02459
X01996Y02387
X01885Y0238
X01785
X01685
X01732Y02309
X01831Y02306
X01835Y02238
X01752Y02179
X01664Y0224
X01627Y02306
X01498Y02307
X01449Y02383
X01565Y02384
X015Y02553
X01436Y02563
X01414Y02552
Y02575
X01392Y02564
Y02542
Y02586
X01408Y02669
X01441Y02657
X0146316Y0261484
X01422Y02503
X0176273Y02564
X01701Y02679
X01741Y0283
X01846Y02762
X01937Y02306
X01972Y02249
X02062Y02226
X02103Y0217
X02043Y02316
X02337Y02341
X02431Y02327
X02485Y02316
X02478Y02368
X0252Y02415
X02465Y02471
X02523Y02529
X02404Y02409
X02508Y02269
X0204Y0175
X0201454Y0175729
X01442Y01945
X01382Y01897
X01332Y0202
X0124Y02015
X0114
X0109Y01965
X0119
X01186Y01913
X01141Y0188
X01155Y0184
X01018Y01801
X00982Y01992
X0104Y02015
X01498Y02006
X01345Y02927
X0089719Y0294726
Y0290227
X0089762Y028443
X0092686Y0280986
X0095832Y0277709
X0086Y02815
X0076
X00745Y02777
X0066Y02815
X0056
X00544Y02728
X00549Y02645
X00559Y02551
X00496Y02589
X00493Y02481
X00439Y02526
X00434Y0242
X00457Y02327
X0044Y0224
X0054
X0064
X00715
X0069Y0219
X00765
X00815Y0224
X00915
X00965Y0219
X00865
X0093Y02071
X00927Y01717
X0093Y0165
Y0155
X00912Y01498
X0059Y0169
Y0179
X0054Y0184
Y0194
X0059Y0189
Y0199
X0054Y0204
X0049Y0209
X0044Y0214
X0054
X0059Y0209
Y0219
X00565Y02402
X00613Y02459
X00648Y02377
X00628Y0262
X00449Y02655
X00448Y02727
X0041804Y0292481
X0038014Y0297449
X0034148Y0297047
X0030281Y0297097
X0026414Y0297072
X0022547Y0297072
X001868Y0297097
X0014814Y0297047
X0010947Y0297097
X0008127Y0296023
X0003276
X-0001575Y0296067
X-0006425Y0296086
X-0011276
X-00112Y02808
Y02762
Y02716
Y0267
Y02624
Y02578
Y02532
Y02486
Y0244
Y02394
Y02348
Y02302
Y02256
Y0221
Y02164
Y02118
Y02072
Y02026
Y0198
Y01934
Y01888
Y01842
Y01796
Y0175
Y01704
Y01658
Y01612
Y01566
Y0152
X0054Y0174
X00465Y01897
Y02003
X0044Y0204
X0045104Y0302181
X00406Y03023
X0050704Y0297781
X0056404Y0294681
X0059204Y0300481
X0063804Y0300581
X0067804Y0302381
X0071604Y0301281
X00754Y03022
X008287Y0302255
X0087544Y030222
X0089684Y0299886
X00767Y02925
X00665Y02955
X0067804Y0310681
X0063804Y0312381
X0059204
X0061261Y0315387
X005642Y0315135
X00566Y03232
X00564Y03311
X0056432Y0336066
X00592Y03432
X00641Y0346
X0067Y0339354
X007Y03345
X008
X009
X00906Y03423
X00947Y03424
X00965Y03364
X00894Y03476
X00858Y03471
X0085Y03517
X00805Y03524
X00803Y03567
X00756Y03573
X00765Y03605
X0072862Y036058
X0068688Y03606
X0065487Y0358331
X00624Y03541
X00707Y03545
X0068729Y0372432
X0073004Y0372412
X0072738Y0377539
X0067997Y0377573
X0063797Y0377235
X00624Y0375
X00653Y0374581
X0058548Y037737
X005489Y0377472
X0051503Y0377438
X0046964Y0377269
X0042866Y0377878
X0039344Y0380012
X0037481Y0383839
X0037256Y0387837
X0036052Y0389861
Y0394712
X0036095Y0399563
X0036115Y0404414
Y0409265
X0046863Y0409289
Y0404438
X0046843Y0399587
X00468Y0394737
Y0389886
X0045713Y0387763
X004732Y0386477
X0052814Y0386386
X0058064Y0386412
X0063813Y0386282
X00615Y03889
X00614Y03972
X0063Y04037
X00623Y04091
X00577
X00669Y0409056
X00715Y0409037
X00761
X00807Y0409
X00853
X0096033Y040923
Y0404379
X0096014Y0399528
X009597Y0394677
Y0389826
X009716Y0386489
X00911Y03824
X0089891Y0376055
X0093751Y0372195
X0097Y03752
X009749Y0368697
X0095109Y0360455
X00901Y03591
X0090238Y0363738
X00856Y03637
X00855Y03685
X00815Y03679
X0081544Y0372425
X007734Y0370608
X0077683Y0376218
X0076347Y0385842
X0069701Y0386024
X00719Y03913
X00731Y04015
X0081529Y0383894
X0085952Y0379955
X0094Y03551
X0088Y03235
X0078
X0068
X00702Y03178
X00754Y03106
X0082939Y0310702
X0089829Y0310632
X0094423Y030741
X0050004Y0312381
X0045104Y0306781
X0040504
X0042804Y0304481
X0033636Y0305901
X0030578Y030593
X0027289Y0305951
X0022837Y0305923
X001909Y0305866
X0015314Y0305923
X0010919Y0305894
X0008076Y0306816
X0003225
X-0001626Y0306859
X-0006477Y0306878
X-0011327
X-00112Y03223
X-0011163Y03269
X-0011163Y03315
X-0011144Y03361
X-00111Y03407
Y03453
X-0011276Y0356108
X-0006425
X-0001574Y0356089
X0003277Y0356045
X0008128
X0010535Y0357092
X0014401Y0357042
X0018268Y0357092
X0022135Y0357067
X0026002Y0357067
X0029869Y0357092
X0033735Y0357042
X0037567Y0357018
X004114Y035699
X0044682Y0356891
X00481Y0357296
X0047Y03525
X00484Y03483
X0037Y03525
X0027
X0017
X00156Y03442
X00321Y03424
X00382Y03246
X00205Y03115
X00102Y03171
X-00043Y03229
X-00059Y0332
X-0006442Y0366902
X-0011293
X-0001591Y0366882
X000326Y0366839
X0008111
X001151Y0365952
X0013513Y0367711
X0015377Y0366003
X0019096Y0365928
X0022687Y0365917
X0024691Y036782
X0026627Y0365889
X0030054
X0033554Y0365925
X003549Y0367793
X003741Y0366
X0040615Y0365925
X0043644Y036595
X00504Y03668
X0055
Y03622
X00504
X00527Y03645
X00489Y03736
X0039Y03725
X0029
X0019
X0009
X00065Y0382
X-00035
X-0011Y03822
X-0010956Y03868
X-0010937Y03914
X-00112Y03777
X00165Y0382
X00265
X00253Y0409
X00207
X00161Y0409044
X00115Y0409063
X00069Y0409063
X0106906Y0409289
Y0404438
X0106886Y0399587
X0106843Y0394736
Y0389885
X0105749Y0386279
X0109666
X0114156
X0122504Y0386309
X0127989Y0385314
X0132118Y0382451
X0135252Y0379287
X01376Y03803
X0138356Y0376183
X0141339Y037323
X0144805Y0370608
X0149114Y0370638
X0152883Y0369853
X0157414Y0367804
X01577Y03658
X0159267Y036453
X0159156Y0360349
X01592Y03566
X01504Y03567
X0150283Y0359666
X0149085Y0362135
X0145191Y0362167
X0141037Y0362817
X0136938Y0362132
X0137403Y0365185
X0134433Y0366047
X0133539Y0369168
X0130252Y0367896
X0130248Y0372541
X01277Y03747
X0123625Y037719
X0120992Y0375256
X0118852Y0377313
X0115273Y0377355
X01171Y03724
X0118616Y0367944
X0123022Y0367933
Y0359481
X0118616Y0359444
X0113642Y0359449
X0108135Y0359396
X0101781Y0359502
X0103239Y0367893
X0108135Y0367934
X0113818Y0367988
X0110842Y0374556
X0107105Y0377298
X0103971Y037769
X0100415Y0379046
X0097883Y038218
X01048Y03725
X01033Y03459
X00982Y03509
X01007Y03363
X01049Y03321
X01032Y03295
X01076Y03254
X01101Y0327
X01117Y03212
X01144Y03227
X01157Y03172
X01186Y03184
X01197Y03142
Y03088
X0128
Y03142
X01267Y03224
X01179Y03313
X01128Y03363
X01121Y03156
X01017Y03155
X01021Y03098
X0098Y03235
X01393Y03363
X01538Y03369
X01636Y03363
X01746Y03353
X01741Y03176
X0179066Y0317567
X01843Y03211
X01935Y03219
X01995Y03176
X0204466Y0317567
X02001Y03351
X02073Y03367
X01921Y03363
X0199934Y0356546
X0199798Y036043
X01998Y03644
X02Y03676
X02002Y03712
X01959Y0371
X01905Y03711
X0179579Y0371621
X01774Y03731
X0181109Y0368976
Y0365786
X0181059Y0362539
X0181093Y0359833
X01811Y03568
X01725Y03565
X0172391Y0359339
X0172321Y0361916
X0169007Y0361935
X0165663Y0361884
X0162907Y036288
X0164888Y0370398
X01657Y03765
X01663Y03795
X0165961Y0382544
X016589Y0386879
X0166818Y0389864
Y0394715
X0166861Y0399566
X0166881Y0404417
Y0409268
X0156082Y0409305
Y0404454
X0156063Y0399603
X015602Y0394752
Y0389901
X0157112Y0387058
X0157058Y0383027
X01521Y03779
X01482Y03775
X01375Y03862
X01247Y03916
X01208Y03921
X01216Y04028
X01223Y04091
X01177
X01269Y0409056
X01315Y0409037
X01361
X01407Y0409
X01453
X0143Y04023
X01823Y04041
Y04092
X01777
X01869Y0409156
X01915Y0409137
X01917Y04066
X01961Y0409137
X02007Y04091
X02053
X02009Y04042
X02011Y03994
X0216057Y0399573
X0216076Y0404424
Y0409274
X0226929
Y0404424
X022691Y0399573
X0226966Y0394622
Y0390571
X02249Y03878
X0223481Y0384856
X0223502Y0380612
X0223091Y0376449
X0223393Y0372493
X02232Y03683
X02238Y03663
X02217Y0365
X02222Y03629
X02196Y03634
X02153Y03628
X02124Y03618
X02088
X02087Y03597
X0208474Y0356529
X0213381Y0356869
X0217564Y0357839
X0222012Y0356572
X0221796Y035953
X0230709Y0360543
X0230636Y0356592
X0234081Y0362156
X0239123Y0362573
X0244289Y0362394
X0243697Y0359609
X0243766Y0356486
X0252501Y0356641
X0252541Y0359483
X0252863Y0367976
X0247398Y0369006
X0246924Y0366235
X0243956Y0365633
X0242641Y0376208
X0238635Y0372288
X0233851Y0370673
X0229352Y0370324
X0225761Y0368406
X0232Y03819
X0246648Y0380301
X0250654Y0384003
X02516Y0393
X02512Y04022
X02515Y0409137
X02469Y0409156
X02423Y04092
X02377
X02417Y04012
X0216013Y0394722
X0214513Y0390371
X0211094Y0389591
X021458Y0386152
X02088Y03776
X0205Y03811
X02051Y03724
X01967Y03655
X01945Y03808
X01937Y03856
X01867Y03832
X01877Y038
X01828Y03791
X01755Y03836
X01821Y03935
X01373Y03568
X01285Y03566
X0128496Y0359407
X01435Y03141
X01499Y03064
X01838Y03088
X0222012Y0307565
X0227637Y03193
X02352Y031726
X02395Y03321
X02456Y03363
X02519Y03327
X025025Y0371857
X0253344Y0374987
X0257586Y0377212
X0259852Y0375175
X0262002Y0377281
X0265688Y0377386
X0269338Y0377281
X027365Y0377177
X0271653Y0375175
X0277231Y0377629
X0281612Y0378498
X0284603Y0381419
X0285651Y0385977
X0286883Y0389899
Y039475
X0286927Y0399601
X0286946Y0404452
Y0409303
X02977Y04093
X03023
X03069Y0409256
X03115Y0409237
X03161
X03207Y04092
X03209Y04048
X03253Y04092
X0336033Y0409229
Y0404378
X0336014Y0399527
X033597Y0394676
Y0389826
X0337292Y0386039
X0333968Y0386338
X0327227Y0386262
X03223Y03865
X0316154Y0386333
X0310064Y0385992
X0303746Y038565
X03015Y0389
X02997Y03977
X03018Y04027
X03115Y0403
X03117Y03922
X03207Y03913
X0322441Y037722
X0325745Y0377354
X0329167Y0377212
X0331417Y0375077
X0334364Y0377175
X0338607Y0377622
X0338901Y037273
X0343435Y0371738
X0343073Y0379408
X0345529Y0383428
X0345707Y0387447
X0346864Y0389817
Y0394668
X0346908Y0399519
X0346927Y040437
Y0409221
X03577Y04091
X03623
X03669Y0409056
X03715Y0409037
X03761
X03807Y0409
X03853
X03899
X03833Y04054
X0383Y0399
X03744Y04034
X03729Y03929
X0362Y03984
X03613Y0403
X03487Y03852
X0350401Y037463
X0348701Y03662
X0349165Y0356456
X0340526Y0357903
X03362
X0337833Y035485
X0334137
X0332796Y03517
X0336198
X0339963
X03385Y0346
X03345
X03365Y03435
X03385Y0341
X03345
X03363Y03359
X03362Y03328
X03325Y0333
Y03359
X03291Y0333
X03285Y03296
X03304Y03276
X03322Y03298
X03326Y03226
X03319Y032
X03311Y03167
Y03122
X0334Y03139
X03354Y03106
X03397Y03119
X03416Y03166
X03369
X0345707Y0313996
X03463Y03088
X0352577Y0307584
X03222Y03094
Y03123
X03214Y03164
X03255
X03277Y03193
X03278Y03226
X03403Y03327
X03402Y03359
X0338333Y0360474
X0333596
X0329202
X0331302Y0357903
X0326798
X0329496Y035485
X032979Y03662
X0328774Y0371738
X0319716Y0374853
X0315831Y0377444
X0310874Y0377622
X0305649Y0377488
X0307201Y03737
X030154Y037463
X0297566Y0370611
X029377Y036677
X0290153Y0363243
X0285955Y0360474
X0288638Y0356456
X0284842Y035
X02782Y03527
X0278541Y0359447
X027153Y0359402
X0265859Y0359447
X026041Y0359491
X0255587
X0258758Y0367932
X0264296Y0367887
X0270684Y0367946
X02768Y0367895
X0282289Y0368176
X0287582Y037273
X0292534Y0377625
X02912Y03827
X0297201Y0382121
X0277174Y0386094
X0275999Y0389882
Y0394733
X0276042Y0399584
X0276062Y0404435
Y0409286
X02653Y04091
X02607
X02612Y04053
X02561Y0409137
X02608Y03951
X0261541Y0386354
X0267289Y0386355
X0272167Y0386311
X0255836Y038605
X0262Y03418
X02613Y03344
X02712
X0278541Y0333874
X02777Y03442
X02726Y03437
X02689Y03281
X0269207Y0312012
X0262179Y030625
X02593Y03171
Y03191
X02568
Y03171
X02994Y03132
X03027
X0305Y03138
Y03118
X02996Y03094
X03134
Y03131
X03135Y0347
X0308674Y0354262
X0314874Y0357839
X0320365Y0357903
X0319274Y0368406
X0314102Y03737
X0312102Y0365
X0304298Y0360543
X0297599Y0354262
X02992Y0348
X0343073Y03616
X0337726Y036735
X03674Y0363243
X036615Y037463
X0378255Y03754
X03893Y03854
X04093Y03846
Y038
Y03754
Y03708
Y03662
Y03616
Y0357
Y03524
Y03478
Y03432
Y03386
Y0334
Y03294
Y03248
Y03202
Y03156
Y0311
Y03064
X03808Y03495
X0359274Y035
X04093Y03892
T02
X-0003197Y0017903
X0006803
X0016803
X0011803Y0027903
X0001803
X-0003197Y0037903
X0006803
X0016803
X0026803
X0036803
X0031803Y0047903
X0021803
X0011803
X0001803
X0006803Y0057903
X-0003197
X0001803Y0067903
X0011803
X0016803Y0077903
X0006803
X-0003197
X0001803Y0087903
X0011803
X0006803Y0097903
X0016803
X0011803Y0107903
X0001803
X0006803Y0117903
X0016803
X0026803
X0021803Y0127903
X0011803
X0001803
X0006803Y0137903
X0016803
X0011803Y0147903
X0001803
X-0003197Y0137903
Y0117903
Y0097903
X0016803Y0057903
X0021803Y0027903
Y0007903
X0031803
X0041803
X0051803
X0061803
X0056803Y0017903
X0046803
Y-0002097
X0056803
X0066803
X0076803
X0036803
X0026803
X0016803
X0011803Y0007903
X0181373Y0108159
X0183873
X0187287Y0114898
X0189787
X0193184Y0115544
X0195684
X0199089
X0201589
X02007Y0129
X0205001Y0130533
X0207501
X0217239Y013018
Y013268
X0222718Y0130533
X0225218
X0228617Y0132867
X0231117
X0234522
X0237022
X024049Y0132805
X024299
X0246396
X0248896
X0237022Y0115544
X0234522
X0231117
X0228617
X0219306
X0216806
X0213336Y0109122
X0210836
X0185624Y0117831
X0186474Y0129885
X0183974
X01805Y01284
X01779Y01315
X01755
X0191542Y0128542
X0194608Y0130696
Y0133196
X019569Y0147856
X019319
X0205001
X0207501
X0356803Y0137903
X0366803
X0376803
X0386803
X0381803Y0127903
X0371803
X0361803
X0366803Y0117903
X0356803
X0361803Y0107903
X0371803
X0381803
X0386803Y0117903
X0376803
X0366803Y0097903
X0356803
X0366803Y0077903
X0376803
X0386803
X0391803Y0067903
X0401803
X0396803Y0057903
X0381803Y0087903
X0391803Y0147903
X0386803Y0017903
X0376803
X0381803Y0007903
X0371803
X0376803Y-0002097
X0341803Y0027903
X0401803Y0167903
Y0227903
X0386803Y0217903
X0371803Y0207903
X0291803Y0227903
X0286803Y0257903
X0276803
X0256803
X0266803Y0237903
X0246803Y0257903
Y0277903
X0206803
X0196803
X0201803Y0267903
X0191803
X0186803Y0257903
X0196803
X0166803
X0156803
X0161803Y0267903
X0166803Y0277903
X0156803
Y0297903
X0146803
X0136803
X0141803Y0287903
X0131803
X0111803
X0181803
X0191803
X0201803
X0196803Y0297903
X0216803
X0216092Y0166699
X0213592
X0222717Y0166738
X0225217
X0183942Y0151281
X0181442Y0151281
X0016803Y0157903
X0006803
X-0003197
X0001803Y0167903
X0011803
X0006803Y0177903
X-0003197
X0001803Y0187903
X0011803
X0006803Y0197903
X-0003197
X0001803Y0207903
X0011803
X0021803
X0031803
X0016803Y0217903
X0006803
X-0003197
X0001803Y0227903
X0011803
X0006803Y0237903
X0016803
X0011803Y0247903
X0001803
X-0003197Y0257903
X0006803
X0016803
X0011803Y0267903
X0001803
X0006803Y0277903
X0016803
X0021803Y0287903
X0031803
X0041803
X0051803
X0061803
X0071803
X0081803
X0076803Y0297903
X0011803Y0287903
X-0003197Y0277903
Y0237903
X0016803Y0197903
Y0177903
X0046803Y0217903
Y0317903
X0036803
X0026803
X0016803
X0021803Y0327903
X0031803
X0026803Y0337903
X0016803
X0006803
X-0003197
X0001803Y0327903
X0011803
Y0347903
X0021803
X0031803
X0026803Y0377903
X0016803
X0021803Y0387903
X0031803
X0011803
X0016803Y0397903
X0066803
X0076803
X0081803Y0387903
X0091803
X0081803Y0347903
X0071803
Y0327903
X0081803
X0091803
X0086803Y0317903
X0076803
X0096803
X0111803Y0307903
X0131803
X0141803
X0136803Y0317903
X0141803Y0327903
X0131803
X0121803
X0151803
X0161803
X0156803Y0317903
X0166803
X0161803Y0307903
X0191803
X0211803
X0216803Y0317903
X0221803Y0327903
X0231803
X0241803
X0251803
X0236803Y0337903
X0216803
X0236803Y0357903
Y0377903
X0226803
X0231803Y0387903
X0241803
X0251803
X0246803Y0397903
X0181803Y0387903
X0171803
X0166803Y0357903
X0146803
X0256803Y0337903
X0266803
X0276803
X0261803Y0327903
X0296803Y0357903
X0301803Y0367903
X0286803Y0377903
X0291803Y0387903
X0306803Y0397903
X0316803
X0351803Y0387903
X0361803
X0371803
X0381803
X0376803Y0397903
X0366803
X0356803Y0377903
X0346803
X0386803
X0396803
X0401803Y0367903
X0391803
X0396803Y0357903
X0386803
X0391803Y0347903
X0401803
X0256803Y0397903
T03
X0084Y0034
X0344Y00915
X02932Y02985
X02764Y02975
X02739
X02714
X02739Y02949
Y02924
X02714
X02764
Y02949
X01396Y02503
X01371
Y02476
X01396
X01422
X00915Y0247903
X009Y02542
X00754
X0073631Y02464
X0067Y02486
X0064Y02307
X0071803Y02325
X0054Y0234
X00912Y02325
X0089881Y0237117
X00378Y03422
X032143Y0333362
X03253Y03371
X03464Y0325
X03649Y03343
X03674
X03699
Y03368
X03674
X03649
Y03394
X03674
X03699
T04
X01261Y03435
X0125026Y03475
X01261Y03517
X01397
X0140774Y03475
X01397Y03435
X01369Y034075
X01329Y0339626
X01289Y034075
X0148Y03435
X0146926Y03475
X0148Y03517
X01616
X0162674Y03475
X01616Y03435
X01588Y034075
X01548Y0339626
X01508Y034075
X01699Y03435
X0168826Y03475
X01699Y03517
X01835
X0184574Y03475
X01835Y03435
X01807Y034075
X01767Y0339626
X01727Y034075
X01975Y03435
X0196426Y03475
X01975Y03517
X02111
X0212174Y03475
X02111Y03435
X02083Y034075
X02043Y0339626
X02003Y034075
X02194Y03435
X0218326Y03475
X02194Y03517
X0233
X0234074Y03475
X0233Y03435
X02302Y034075
X02262Y0339626
X02222Y034075
X02413Y03435
X0240226Y03475
X02413Y03517
X02441Y034075
X02481Y0339626
X02521Y034075
X02202Y03765
X0218
X02158
X01627
X01605
X01583
X02549Y03517
X0255974Y03475
X02549Y03435
T05
X0363472Y0186142
Y0189685
Y0193228
Y0196772
Y0200315
Y0203858
X0366622Y020563
Y0198543
Y0191457
Y018437
X0376661Y0186142
Y0189685
Y0193228
Y0196772
Y0200315
Y0203858
X0379811Y020563
Y0198543
Y0191457
Y018437
T10
X01093Y00767
Y00867
X01193
Y00767
X01293
Y00867
X01393
Y00767
X01493
X01593
Y00867
X01493
X01693
X01693Y00767
X01793
Y00867
X01893
X01893Y00767
X01993
X02093
Y00867
X01993
X02193
X02293
Y00767
X02193
X003615Y022005
X002615
Y023005
X003615
Y024005
Y025005
Y026005
Y027005
Y028005
X002615
X002615Y027005
Y026005
Y025005
X002615Y024005
X04004Y0313
Y0323
Y0333
T11
X0027Y00565
X0037
Y00665
Y00765
X0027Y00765
X0027Y00865
Y00965
Y01065
X0037
Y00965
Y00865
X0027Y00665
X0027Y01465
X0037
Y01565
X0027
Y01665
Y01765
Y01865
Y01965
X0037
Y01865
X0037Y01765
Y01665
T12
X03205Y02388
Y02468
Y02548
X03305Y02508
Y02428
Y02588
Y02668
Y02748
Y02828
X03205Y02788
Y02708
Y02868
T13
X02665Y00315
Y00415
Y00515
X02665Y00765
Y00865
X02665Y00965
X02955
X02955Y00865
X02955Y00765
Y00515
Y00415
Y00315
X0082Y02325
Y02425
Y02525
T14
X03715Y02332
X03815
X03915
Y02924
X03815
T15
X0030025Y002
X0080175Y002
T16
X03565Y02282
Y02974
T17
X01155Y0125
X02655
X01155Y035
X02655
T18
X0Y0
X0398
X0Y0398
X0398
T19
X0127134Y0238846
X0118866Y0282154
T20
X0363472Y0176299
Y0213701
X00745Y02037
Y01643
T21
X01329Y03475
X01548
X01767
X02043
X02262
X02481
T22
X03565Y02438
Y02818
M30
